<svg viewBox="0 0 1200 675" xmlns="http://www.w3.org/2000/svg" preserveAspectRatio="xMidYMid slice" role="img" aria-label="Малки Подаръчета — E-commerce site placeholder">
  <defs>
    <linearGradient id="bg-malki" x1="0" y1="0" x2="1" y2="1">
      <stop offset="0" stop-color="#0a0a0a"/>
      <stop offset="1" stop-color="#15171c"/>
    </linearGradient>
  </defs>
  <rect width="1200" height="675" fill="url(#bg-malki)"/>

  <!-- Soft confetti / sparkle pattern (matches the actual site's confetti animation) -->
  <g fill="#e88da0">
    <rect x="900"  y="120" width="14" height="14" transform="rotate(45 907 127)" opacity="0.45"/>
    <rect x="990"  y="180" width="10" height="10" transform="rotate(20 995 185)" opacity="0.5"/>
    <rect x="1070" y="140" width="16" height="16" transform="rotate(60 1078 148)" opacity="0.35"/>
    <rect x="1130" y="240" width="12" height="12" transform="rotate(15 1136 246)" opacity="0.4"/>
    <rect x="940"  y="280" width="10" height="10" transform="rotate(35 945 285)" opacity="0.45"/>
    <rect x="1040" y="340" width="14" height="14" transform="rotate(70 1047 347)" opacity="0.4"/>
    <rect x="1110" y="420" width="12" height="12" transform="rotate(25 1116 426)" opacity="0.45"/>
    <rect x="970"  y="460" width="16" height="16" transform="rotate(50 978 468)" opacity="0.35"/>
    <rect x="1080" y="530" width="10" height="10" transform="rotate(40 1085 535)" opacity="0.5"/>
    <rect x="920"  y="560" width="14" height="14" transform="rotate(15 927 567)" opacity="0.4"/>
    <rect x="1140" y="580" width="12" height="12" transform="rotate(55 1146 586)" opacity="0.45"/>
    <rect x="870"  y="180" width="10" height="10" transform="rotate(30 875 185)" opacity="0.5"/>
    <rect x="850"  y="380" width="14" height="14" transform="rotate(65 857 387)" opacity="0.35"/>
  </g>

  <!-- Title block -->
  <text x="80" y="320" fill="#e5e5e5" font-family="Inter, -apple-system, BlinkMacSystemFont, 'Segoe UI', system-ui, sans-serif" font-size="76" font-weight="700">Малки Подаръчета</text>
  <text x="82" y="370" fill="#e88da0" font-family="ui-monospace, 'JetBrains Mono', Consolas, monospace" font-size="22" font-weight="600" letter-spacing="4">NEXT.JS E-COMMERCE · 81 PAGES</text>

  <!-- Footer hint -->
  <text x="80" y="620" fill="#6b7280" font-family="ui-monospace, 'JetBrains Mono', Consolas, monospace" font-size="14" letter-spacing="2">PLACEHOLDER — REAL SCREENSHOT COMING</text>
</svg>
