<svg viewBox="0 0 1200 675" xmlns="http://www.w3.org/2000/svg" preserveAspectRatio="xMidYMid slice" role="img" aria-label="SIMA-MA — Industrial Website placeholder">
  <defs>
    <linearGradient id="bg-sima" x1="0" y1="0" x2="1" y2="1">
      <stop offset="0" stop-color="#0a0a0a"/>
      <stop offset="1" stop-color="#15171c"/>
    </linearGradient>
  </defs>
  <rect width="1200" height="675" fill="url(#bg-sima)"/>

  <!-- Scattered concrete-aggregate particles (matches the actual site's hero) -->
  <g fill="#8b7355">
    <circle cx="980"  cy="120" r="3" opacity="0.5"/>
    <circle cx="1020" cy="180" r="5" opacity="0.4"/>
    <circle cx="1080" cy="140" r="2" opacity="0.6"/>
    <circle cx="1130" cy="220" r="4" opacity="0.35"/>
    <circle cx="930"  cy="240" r="3" opacity="0.45"/>
    <circle cx="1060" cy="280" r="6" opacity="0.3"/>
    <circle cx="990"  cy="340" r="2" opacity="0.5"/>
    <circle cx="1110" cy="380" r="4" opacity="0.4"/>
    <circle cx="940"  cy="420" r="3" opacity="0.5"/>
    <circle cx="1040" cy="460" r="5" opacity="0.35"/>
    <circle cx="1100" cy="510" r="3" opacity="0.45"/>
    <circle cx="970"  cy="550" r="4" opacity="0.4"/>
    <circle cx="1140" cy="590" r="2" opacity="0.55"/>
    <circle cx="900"  cy="320" r="2" opacity="0.5"/>
    <circle cx="870"  cy="180" r="4" opacity="0.35"/>
    <circle cx="850"  cy="500" r="3" opacity="0.4"/>
  </g>

  <!-- Title block -->
  <text x="80" y="320" fill="#e5e5e5" font-family="Inter, -apple-system, BlinkMacSystemFont, 'Segoe UI', system-ui, sans-serif" font-size="76" font-weight="700">SIMA-MA</text>
  <text x="82" y="370" fill="#8b7355" font-family="ui-monospace, 'JetBrains Mono', Consolas, monospace" font-size="22" font-weight="600" letter-spacing="4">INDUSTRIAL WEBSITE · BG / EN</text>

  <!-- Footer hint -->
  <text x="80" y="620" fill="#6b7280" font-family="ui-monospace, 'JetBrains Mono', Consolas, monospace" font-size="14" letter-spacing="2">PLACEHOLDER — REAL SCREENSHOT COMING</text>
</svg>
